G75*
G70*
%OFA0B0*%
%FSLAX24Y24*%
%IPPOS*%
%LPD*%
%AMOC8*
5,1,8,0,0,1.08239X$1,22.5*
%
%ADD10C,0.0624*%
%ADD11C,0.0888*%
%ADD12C,0.0792*%
%ADD13C,0.1560*%
%ADD14R,0.0780X0.0780*%
%ADD15C,0.0780*%
%ADD16C,0.0624*%
%ADD17C,0.0936*%
%ADD18OC8,0.0624*%
%ADD19OC8,0.0756*%
%ADD20OC8,0.0720*%
%ADD21C,0.2400*%
%ADD22C,0.0720*%
%ADD23C,0.0480*%
D10*
X014921Y007391D02*
X014921Y007911D01*
X015921Y007911D02*
X015921Y007391D01*
X016921Y007391D02*
X016921Y007911D01*
X017921Y007911D02*
X017921Y007391D01*
X018921Y007391D02*
X018921Y007911D01*
X019921Y007911D02*
X019921Y007391D01*
X020921Y007391D02*
X020921Y007911D01*
X021921Y007911D02*
X021921Y007391D01*
X021921Y010391D02*
X021921Y010911D01*
X020921Y010911D02*
X020921Y010391D01*
X019921Y010391D02*
X019921Y010911D01*
X018921Y010911D02*
X018921Y010391D01*
X017921Y010391D02*
X017921Y010911D01*
X016921Y010911D02*
X016921Y010391D01*
X015921Y010391D02*
X015921Y010911D01*
X014921Y010911D02*
X014921Y010391D01*
X014921Y014891D02*
X014921Y015411D01*
X013921Y015411D02*
X013921Y014891D01*
X012921Y014891D02*
X012921Y015411D01*
X011921Y015411D02*
X011921Y014891D01*
X010921Y014891D02*
X010921Y015411D01*
X009921Y015411D02*
X009921Y014891D01*
X008921Y014891D02*
X008921Y015411D01*
X007921Y015411D02*
X007921Y014891D01*
X006921Y014891D02*
X006921Y015411D01*
X015921Y015411D02*
X015921Y014891D01*
X016921Y014891D02*
X016921Y015411D01*
X017921Y015411D02*
X017921Y014891D01*
X020421Y017891D02*
X020421Y018411D01*
X021421Y018411D02*
X021421Y017891D01*
X022421Y017891D02*
X022421Y018411D01*
X023421Y018411D02*
X023421Y017891D01*
X024421Y017891D02*
X024421Y018411D01*
X025421Y018411D02*
X025421Y017891D01*
X026421Y017891D02*
X026421Y018411D01*
X027421Y018411D02*
X027421Y017891D01*
X028421Y017891D02*
X028421Y018411D01*
X029421Y018411D02*
X029421Y017891D01*
X030421Y017891D02*
X030421Y018411D01*
X031421Y018411D02*
X031421Y017891D01*
X032421Y017891D02*
X032421Y018411D01*
X033421Y018411D02*
X033421Y017891D01*
X033421Y020891D02*
X033421Y021411D01*
X032421Y021411D02*
X032421Y020891D01*
X031421Y020891D02*
X031421Y021411D01*
X030421Y021411D02*
X030421Y020891D01*
X029421Y020891D02*
X029421Y021411D01*
X028421Y021411D02*
X028421Y020891D01*
X027421Y020891D02*
X027421Y021411D01*
X026421Y021411D02*
X026421Y020891D01*
X025421Y020891D02*
X025421Y021411D01*
X024421Y021411D02*
X024421Y020891D01*
X023421Y020891D02*
X023421Y021411D01*
X022421Y021411D02*
X022421Y020891D01*
X021421Y020891D02*
X021421Y021411D01*
X020421Y021411D02*
X020421Y020891D01*
X017921Y020891D02*
X017921Y021411D01*
X016921Y021411D02*
X016921Y020891D01*
X015921Y020891D02*
X015921Y021411D01*
X014921Y021411D02*
X014921Y020891D01*
X013921Y020891D02*
X013921Y021411D01*
X012921Y021411D02*
X012921Y020891D01*
X011921Y020891D02*
X011921Y021411D01*
X010921Y021411D02*
X010921Y020891D01*
X009921Y020891D02*
X009921Y021411D01*
X008921Y021411D02*
X008921Y020891D01*
X007921Y020891D02*
X007921Y021411D01*
X006921Y021411D02*
X006921Y020891D01*
X026921Y012411D02*
X026921Y011891D01*
X027921Y011891D02*
X027921Y012411D01*
X028921Y012411D02*
X028921Y011891D01*
X029921Y011891D02*
X029921Y012411D01*
X029921Y009411D02*
X029921Y008891D01*
X028921Y008891D02*
X028921Y009411D01*
X027921Y009411D02*
X027921Y008891D01*
X026921Y008891D02*
X026921Y009411D01*
D11*
X031249Y009136D03*
X031999Y009636D03*
X031999Y008636D03*
X021421Y016151D03*
X020421Y016151D03*
X020421Y024651D03*
X021421Y024651D03*
X022421Y024651D03*
X023421Y024651D03*
X024421Y024651D03*
X025421Y024651D03*
X027421Y024651D03*
X028421Y024651D03*
X029421Y024651D03*
X031421Y024651D03*
X032421Y024651D03*
X033421Y024651D03*
X012921Y024651D03*
X011921Y024651D03*
X009421Y024651D03*
X008421Y024651D03*
X007421Y024651D03*
X003903Y021866D03*
X002903Y021866D03*
X002903Y018884D03*
X003903Y018884D03*
X003885Y015884D03*
X002885Y015884D03*
X002921Y012866D03*
X003921Y012866D03*
X003903Y009866D03*
X002903Y009866D03*
X002885Y006849D03*
X003885Y006849D03*
X006921Y006651D03*
X007921Y006651D03*
X008921Y006651D03*
X006921Y004651D03*
X006921Y003651D03*
X006921Y002651D03*
X003867Y003849D03*
X002867Y003849D03*
X010171Y003651D03*
X010921Y003151D03*
X010921Y004151D03*
D12*
X036141Y019159D03*
X036921Y019159D03*
X036921Y020143D03*
X036141Y020143D03*
D13*
X002921Y001651D03*
X037991Y017281D03*
X037991Y022021D03*
X038921Y024151D03*
X002921Y024151D03*
X038921Y001651D03*
D14*
X032452Y006667D03*
X024667Y007046D03*
X023421Y013651D03*
X013027Y008151D03*
X010421Y023151D03*
D15*
X011421Y023151D03*
X022421Y013651D03*
X013027Y007151D03*
X023667Y007046D03*
X033452Y006667D03*
D16*
X029921Y015651D03*
X027921Y015651D03*
X010450Y012078D03*
X008450Y012078D03*
D17*
X033421Y011151D03*
X033421Y015151D03*
D18*
X032083Y013315D03*
X032083Y012315D03*
X028921Y013651D03*
X027921Y013651D03*
X025921Y013651D03*
X024921Y013651D03*
X024921Y012545D03*
X024921Y011545D03*
X024921Y009651D03*
X023921Y009651D03*
X026921Y006236D03*
X027921Y006236D03*
X020902Y006163D03*
X019902Y006163D03*
X011421Y006651D03*
X011421Y005651D03*
X008921Y003651D03*
X008921Y002651D03*
X005421Y003151D03*
X005421Y004151D03*
X005421Y006151D03*
X005421Y007151D03*
X006921Y008151D03*
X007921Y008151D03*
X005421Y009151D03*
X005421Y010151D03*
X005421Y012151D03*
X005421Y013151D03*
X006921Y013651D03*
X007921Y013651D03*
X005421Y015651D03*
X005421Y016651D03*
X005421Y018151D03*
X005421Y019151D03*
X005421Y020651D03*
X005421Y021651D03*
X006427Y023111D03*
X007427Y023111D03*
X014921Y024651D03*
X015921Y024651D03*
X016921Y023151D03*
X017921Y023151D03*
X020421Y023151D03*
X021421Y023151D03*
X024421Y016651D03*
X024421Y015651D03*
X016921Y012257D03*
X015921Y012257D03*
X035421Y024151D03*
X035921Y024901D03*
X036421Y024151D03*
D19*
X034421Y016651D03*
X033421Y016651D03*
X031900Y016168D03*
X031900Y015168D03*
X025852Y015168D03*
X025852Y016168D03*
X020684Y014039D03*
X020684Y013039D03*
X016921Y013651D03*
X015921Y013651D03*
X013015Y011539D03*
X013015Y010539D03*
X011120Y010521D03*
X010120Y010521D03*
X008824Y010518D03*
X007824Y010518D03*
X014919Y006259D03*
X015919Y006259D03*
X026921Y007674D03*
X027921Y007674D03*
X030043Y006693D03*
X031043Y006693D03*
X015377Y023136D03*
X014377Y023136D03*
X016910Y024593D03*
X017910Y024593D03*
X005921Y024651D03*
X004921Y024651D03*
D20*
X035421Y011311D03*
X036421Y010771D03*
X035421Y010231D03*
X036421Y009691D03*
X035421Y009151D03*
X036421Y008611D03*
X035421Y008071D03*
X036421Y007531D03*
X035421Y006991D03*
D21*
X035921Y004221D03*
X035921Y014081D03*
D22*
X031721Y004236D02*
X031121Y004236D01*
X030421Y002536D02*
X030421Y001936D01*
X028890Y001905D02*
X028890Y002505D01*
X026890Y002505D02*
X026890Y001905D01*
X025360Y001905D02*
X025360Y002505D01*
X023360Y002505D02*
X023360Y001905D01*
X021890Y001844D02*
X021890Y002444D01*
X019890Y002444D02*
X019890Y001844D01*
X018452Y001813D02*
X018452Y002413D01*
X016452Y002413D02*
X016452Y001813D01*
X014952Y001751D02*
X014952Y002351D01*
X012952Y002351D02*
X012952Y001751D01*
X013652Y004051D02*
X014252Y004051D01*
X017152Y004113D02*
X017752Y004113D01*
X020590Y004144D02*
X021190Y004144D01*
X024060Y004205D02*
X024660Y004205D01*
X027590Y004205D02*
X028190Y004205D01*
X032421Y002536D02*
X032421Y001936D01*
D23*
X032781Y010651D03*
X025741Y012071D03*
X024061Y012551D03*
X024861Y014631D03*
X027261Y016791D03*
X027821Y017351D03*
X020941Y017511D03*
X016381Y017271D03*
X015021Y019831D03*
X010941Y018951D03*
X011261Y022471D03*
X018381Y023831D03*
X019101Y020631D03*
X026021Y023831D03*
X032141Y023671D03*
X014141Y011991D03*
X015341Y005191D03*
X016781Y005191D03*
X017181Y004791D03*
X012941Y004311D03*
M02*
