%
M48
M72
T01C0.0236
T02C0.0240
T03C0.0276
T04C0.0320
T05C0.0360
T06C0.0394
T07C0.0400
T08C0.0900
T09C0.1300
%
T01
X13441Y17712
X18661Y18472
X17961Y21212
X19041Y24592
X30501Y19882
T02
X30381Y17152
X29821Y16992
X25341Y14752
X21821Y12592
X18541Y14352
X17261Y16272
X15661Y16752
X15021Y17752
X15261Y19312
X15021Y20032
X15421Y20432
X13901Y19872
X13501Y20432
X12621Y20352
X12621Y19872
X12941Y19472
X11821Y18672
X14621Y21552
X14941Y22352
X12301Y22592
X19101Y23392
X19101Y20432
X21181Y19312
X32221Y23372
X10061Y13412
X8781Y11632
X6221Y10912
X17421Y5152
X22461Y8592
T03
X17526Y8518
X17526Y9518
X22421Y13772
X23421Y13772
X32452Y6788
X33452Y6788
X7527Y6772
X7527Y5772
X10421Y23272
X11421Y23272
T04
X14377Y23257
X15377Y23257
X16921Y23272
X17921Y23272
X17910Y24714
X16910Y24714
X15921Y24772
X14921Y24772
X20421Y23272
X21421Y23272
X21421Y21272
X20421Y21272
X22421Y21272
X23421Y21272
X24421Y21272
X25421Y21272
X26421Y21272
X27421Y21272
X28421Y21272
X29421Y21272
X30421Y21272
X31421Y21272
X32421Y21272
X33421Y21272
X33421Y18272
X32421Y18272
X31421Y18272
X30421Y18272
X29421Y18272
X28421Y18272
X27421Y18272
X26421Y18272
X25421Y18272
X24421Y18272
X23421Y18272
X22421Y18272
X21421Y18272
X20421Y18272
X24421Y16772
X25852Y16289
X25852Y15289
X24421Y15772
X24921Y13772
X25921Y13772
X24921Y12666
X24921Y11666
X26921Y12272
X27921Y12272
X28921Y12272
X29921Y12272
X32083Y12436
X32083Y13436
X31900Y15289
X31900Y16289
X33421Y16772
X34421Y16772
X29921Y15772
X27921Y15772
X27921Y13772
X28921Y13772
X31999Y9757
X31249Y9257
X31999Y8757
X29921Y9272
X28921Y9272
X27921Y9272
X26921Y9272
X26921Y7795
X27921Y7795
X30043Y6814
X31043Y6814
X27921Y6357
X26921Y6357
X20902Y6284
X19902Y6284
X20331Y9412
X20331Y10412
X20684Y13160
X20684Y14160
X17741Y13958
X16741Y13958
X16771Y15172
X17771Y15172
X14421Y13772
X14421Y12772
X14421Y11772
X14421Y10772
X14421Y9772
X14421Y8772
X14421Y7772
X14421Y6772
X11421Y6772
X11421Y7772
X11421Y8772
X11421Y9772
X11421Y10772
X11421Y11772
X11421Y12772
X11421Y13772
X5421Y13272
X5421Y12272
X3921Y12987
X2921Y12987
X5421Y10272
X5421Y9272
X3903Y9987
X2903Y9987
X6921Y8272
X7921Y8272
X5421Y7272
X5421Y6272
X3885Y6969
X2885Y6969
X5421Y4272
X5421Y3272
X3867Y3969
X2867Y3969
X9515Y5660
X9515Y6660
X10813Y4270
X10813Y3270
X5421Y15772
X5421Y16772
X3885Y16005
X2885Y16005
X5421Y18272
X5421Y19272
X3903Y19005
X2903Y19005
X5421Y20772
X5421Y21772
X3903Y21987
X2903Y21987
X6427Y23232
X7427Y23232
X5921Y24772
X4921Y24772
X7288Y21369
X8847Y20743
X7288Y20369
X7291Y19074
X8847Y18743
X7291Y18074
X10921Y19772
X10921Y20772
X35421Y24272
X35921Y25022
X36421Y24272
T05
X36141Y20264
X36921Y20264
X36921Y19280
X36141Y19280
T06
X33421Y15272
X33421Y11272
T07
X35421Y11432
X36421Y10892
X35421Y10352
X36421Y9812
X35421Y9272
X36421Y8732
X35421Y8192
X36421Y7652
X35421Y7112
X31421Y4357
X27921Y4272
X26921Y2272
X25360Y2326
X23360Y2326
X21890Y2264
X19890Y2264
X18452Y2234
X16452Y2234
X14952Y2172
X12952Y2172
X13952Y4172
X17452Y4234
X20890Y4264
X24360Y4326
X28921Y2272
X30421Y2357
X32421Y2357
X21421Y16272
X20421Y16272
X20421Y24772
X21421Y24772
X22421Y24772
X23421Y24772
X24421Y24772
X25421Y24772
X27421Y24772
X28421Y24772
X29421Y24772
X31421Y24772
X32421Y24772
X33421Y24772
X12921Y24772
X11921Y24772
X9421Y24772
X8421Y24772
X7421Y24772
T08
X37991Y22142
X37991Y17402
T09
X2921Y1772
X35921Y4342
X38921Y1772
X35921Y14202
X38921Y24272
X2921Y24272
M30
