G75*
G70*
%OFA0B0*%
%FSLAX24Y24*%
%IPPOS*%
%LPD*%
%AMOC8*
5,1,8,0,0,1.08239X$1,22.5*
%
%ADD10C,0.0600*%
%ADD11C,0.0820*%
%ADD12C,0.0740*%
%ADD13C,0.1380*%
%ADD14R,0.0730X0.0730*%
%ADD15C,0.0730*%
%ADD16C,0.0600*%
%ADD17C,0.0860*%
%ADD18OC8,0.0600*%
%ADD19OC8,0.0710*%
%ADD20OC8,0.0680*%
%ADD21C,0.2080*%
%ADD22C,0.0680*%
%ADD23R,0.0200X0.0470*%
%ADD24C,0.0480*%
%ADD25R,0.0476X0.0476*%
D10*
X011161Y006772D02*
X011681Y006772D01*
X011681Y007772D02*
X011161Y007772D01*
X011161Y008772D02*
X011681Y008772D01*
X011681Y009772D02*
X011161Y009772D01*
X011161Y010772D02*
X011681Y010772D01*
X011681Y011772D02*
X011161Y011772D01*
X011161Y012772D02*
X011681Y012772D01*
X011681Y013772D02*
X011161Y013772D01*
X014161Y013772D02*
X014681Y013772D01*
X014681Y012772D02*
X014161Y012772D01*
X014161Y011772D02*
X014681Y011772D01*
X014681Y010772D02*
X014161Y010772D01*
X014161Y009772D02*
X014681Y009772D01*
X014681Y008772D02*
X014161Y008772D01*
X014161Y007772D02*
X014681Y007772D01*
X014681Y006772D02*
X014161Y006772D01*
X026921Y009012D02*
X026921Y009532D01*
X027921Y009532D02*
X027921Y009012D01*
X028921Y009012D02*
X028921Y009532D01*
X029921Y009532D02*
X029921Y009012D01*
X029921Y012012D02*
X029921Y012532D01*
X028921Y012532D02*
X028921Y012012D01*
X027921Y012012D02*
X027921Y012532D01*
X026921Y012532D02*
X026921Y012012D01*
X026421Y018012D02*
X026421Y018532D01*
X025421Y018532D02*
X025421Y018012D01*
X024421Y018012D02*
X024421Y018532D01*
X023421Y018532D02*
X023421Y018012D01*
X022421Y018012D02*
X022421Y018532D01*
X021421Y018532D02*
X021421Y018012D01*
X020421Y018012D02*
X020421Y018532D01*
X020421Y021012D02*
X020421Y021532D01*
X021421Y021532D02*
X021421Y021012D01*
X022421Y021012D02*
X022421Y021532D01*
X023421Y021532D02*
X023421Y021012D01*
X024421Y021012D02*
X024421Y021532D01*
X025421Y021532D02*
X025421Y021012D01*
X026421Y021012D02*
X026421Y021532D01*
X027421Y021532D02*
X027421Y021012D01*
X028421Y021012D02*
X028421Y021532D01*
X029421Y021532D02*
X029421Y021012D01*
X030421Y021012D02*
X030421Y021532D01*
X031421Y021532D02*
X031421Y021012D01*
X032421Y021012D02*
X032421Y021532D01*
X033421Y021532D02*
X033421Y021012D01*
X033421Y018532D02*
X033421Y018012D01*
X032421Y018012D02*
X032421Y018532D01*
X031421Y018532D02*
X031421Y018012D01*
X030421Y018012D02*
X030421Y018532D01*
X029421Y018532D02*
X029421Y018012D01*
X028421Y018012D02*
X028421Y018532D01*
X027421Y018532D02*
X027421Y018012D01*
D11*
X021421Y016272D03*
X020421Y016272D03*
X031249Y009257D03*
X031999Y009757D03*
X031999Y008757D03*
X032421Y024772D03*
X033421Y024772D03*
X031421Y024772D03*
X029421Y024772D03*
X028421Y024772D03*
X027421Y024772D03*
X025421Y024772D03*
X024421Y024772D03*
X023421Y024772D03*
X022421Y024772D03*
X021421Y024772D03*
X020421Y024772D03*
X012921Y024772D03*
X011921Y024772D03*
X009421Y024772D03*
X008421Y024772D03*
X007421Y024772D03*
X003903Y021987D03*
X002903Y021987D03*
X002903Y019005D03*
X003903Y019005D03*
X003885Y016005D03*
X002885Y016005D03*
X002921Y012987D03*
X003921Y012987D03*
X003903Y009987D03*
X002903Y009987D03*
X002885Y006969D03*
X003885Y006969D03*
X003867Y003969D03*
X002867Y003969D03*
D12*
X036141Y019280D03*
X036921Y019280D03*
X036921Y020264D03*
X036141Y020264D03*
D13*
X002921Y001772D03*
X037991Y017402D03*
X037991Y022142D03*
X038921Y024272D03*
X002921Y024272D03*
X038921Y001772D03*
D14*
X032452Y006788D03*
X023421Y013772D03*
X017526Y009518D03*
X007527Y006772D03*
X010421Y023272D03*
D15*
X011421Y023272D03*
X022421Y013772D03*
X017526Y008518D03*
X007527Y005772D03*
X033452Y006788D03*
D16*
X029921Y015772D03*
X027921Y015772D03*
X008847Y018743D03*
X008847Y020743D03*
D17*
X033421Y015272D03*
X033421Y011272D03*
D18*
X032083Y012436D03*
X032083Y013436D03*
X028921Y013772D03*
X027921Y013772D03*
X025921Y013772D03*
X024921Y013772D03*
X024921Y012666D03*
X024921Y011666D03*
X020331Y010412D03*
X020331Y009412D03*
X019902Y006284D03*
X020902Y006284D03*
X026921Y006357D03*
X027921Y006357D03*
X017741Y013958D03*
X016741Y013958D03*
X024421Y015772D03*
X024421Y016772D03*
X021421Y023272D03*
X020421Y023272D03*
X017921Y023272D03*
X016921Y023272D03*
X015921Y024772D03*
X014921Y024772D03*
X010921Y020772D03*
X010921Y019772D03*
X005421Y019272D03*
X005421Y018272D03*
X005421Y016772D03*
X005421Y015772D03*
X005421Y013272D03*
X005421Y012272D03*
X005421Y010272D03*
X005421Y009272D03*
X006921Y008272D03*
X007921Y008272D03*
X005421Y007272D03*
X005421Y006272D03*
X005421Y004272D03*
X005421Y003272D03*
X005421Y020772D03*
X005421Y021772D03*
X006427Y023232D03*
X007427Y023232D03*
X035421Y024272D03*
X035921Y025022D03*
X036421Y024272D03*
D19*
X034421Y016772D03*
X033421Y016772D03*
X031900Y016289D03*
X031900Y015289D03*
X025852Y015289D03*
X025852Y016289D03*
X020684Y014160D03*
X020684Y013160D03*
X017771Y015172D03*
X016771Y015172D03*
X007291Y018074D03*
X007291Y019074D03*
X007288Y020369D03*
X007288Y021369D03*
X005921Y024772D03*
X004921Y024772D03*
X014377Y023257D03*
X015377Y023257D03*
X016910Y024714D03*
X017910Y024714D03*
X026921Y007795D03*
X027921Y007795D03*
X030043Y006814D03*
X031043Y006814D03*
X010813Y004270D03*
X010813Y003270D03*
X009515Y005660D03*
X009515Y006660D03*
D20*
X035421Y007112D03*
X036421Y007652D03*
X035421Y008192D03*
X036421Y008732D03*
X035421Y009272D03*
X036421Y009812D03*
X035421Y010352D03*
X036421Y010892D03*
X035421Y011432D03*
D21*
X035921Y014202D03*
X035921Y004342D03*
D22*
X032421Y002657D02*
X032421Y002057D01*
X030421Y002057D02*
X030421Y002657D01*
X028921Y002572D02*
X028921Y001972D01*
X026921Y001972D02*
X026921Y002572D01*
X025360Y002626D02*
X025360Y002026D01*
X023360Y002026D02*
X023360Y002626D01*
X021890Y002564D02*
X021890Y001964D01*
X019890Y001964D02*
X019890Y002564D01*
X018452Y002534D02*
X018452Y001934D01*
X016452Y001934D02*
X016452Y002534D01*
X014952Y002472D02*
X014952Y001872D01*
X012952Y001872D02*
X012952Y002472D01*
X013652Y004172D02*
X014252Y004172D01*
X017152Y004234D02*
X017752Y004234D01*
X020590Y004264D02*
X021190Y004264D01*
X024060Y004326D02*
X024660Y004326D01*
X027621Y004272D02*
X028221Y004272D01*
X031121Y004357D02*
X031721Y004357D01*
D23*
X016329Y018623D03*
X016073Y018623D03*
X015817Y018623D03*
X015561Y018623D03*
X015305Y018623D03*
X015049Y018623D03*
X014793Y018623D03*
X014537Y018623D03*
X014281Y018623D03*
X014025Y018623D03*
X013770Y018623D03*
X013514Y018623D03*
X013514Y020921D03*
X013770Y020921D03*
X014025Y020921D03*
X014281Y020921D03*
X014537Y020921D03*
X014793Y020921D03*
X015049Y020921D03*
X015305Y020921D03*
X015561Y020921D03*
X015817Y020921D03*
X016073Y020921D03*
X016329Y020921D03*
D24*
X015421Y020432D03*
X015021Y020032D03*
X013901Y019872D03*
X013501Y020432D03*
X012621Y020352D03*
X012621Y019872D03*
X012941Y019472D03*
X011821Y018672D03*
X015021Y017752D03*
X015661Y016752D03*
X017261Y016272D03*
X018541Y014352D03*
X021821Y012592D03*
X025341Y014752D03*
X029821Y016992D03*
X030381Y017152D03*
X021181Y019312D03*
X019101Y020432D03*
X015261Y019312D03*
X014621Y021552D03*
X014941Y022352D03*
X012301Y022592D03*
X019101Y023392D03*
X032221Y023372D03*
X010061Y013412D03*
X008781Y011632D03*
X006221Y010912D03*
X017421Y005152D03*
X022461Y008592D03*
D25*
X013441Y017712D03*
X018661Y018472D03*
X017961Y021212D03*
X019041Y024592D03*
X030501Y019882D03*
M02*
