G75*
G70*
%OFA0B0*%
%FSLAX24Y24*%
%IPPOS*%
%LPD*%
%AMOC8*
5,1,8,0,0,1.08239X$1,22.5*
%
%ADD10C,0.0600*%
%ADD11C,0.0820*%
%ADD12C,0.0740*%
%ADD13C,0.1380*%
%ADD14R,0.0730X0.0730*%
%ADD15C,0.0730*%
%ADD16C,0.0600*%
%ADD17C,0.0860*%
%ADD18OC8,0.0600*%
%ADD19OC8,0.0710*%
%ADD20C,0.0680*%
%ADD21OC8,0.0680*%
%ADD22C,0.2080*%
%ADD23R,0.0200X0.0470*%
%ADD24C,0.0480*%
%ADD25OC8,0.0476*%
%ADD26C,0.0476*%
D10*
X009431Y007272D02*
X009951Y007272D01*
X009951Y008272D02*
X009431Y008272D01*
X009431Y009272D02*
X009951Y009272D01*
X009951Y010272D02*
X009431Y010272D01*
X009431Y011272D02*
X009951Y011272D01*
X009951Y012272D02*
X009431Y012272D01*
X009431Y013272D02*
X009951Y013272D01*
X009951Y014272D02*
X009431Y014272D01*
X012431Y014272D02*
X012951Y014272D01*
X012951Y013272D02*
X012431Y013272D01*
X012431Y012272D02*
X012951Y012272D01*
X012951Y011272D02*
X012431Y011272D01*
X012431Y010272D02*
X012951Y010272D01*
X012951Y009272D02*
X012431Y009272D01*
X012431Y008272D02*
X012951Y008272D01*
X012951Y007272D02*
X012431Y007272D01*
X022262Y017067D02*
X022262Y017587D01*
X023262Y017587D02*
X023262Y017067D01*
X024262Y017067D02*
X024262Y017587D01*
X025262Y017587D02*
X025262Y017067D01*
X026262Y017067D02*
X026262Y017587D01*
X027262Y017587D02*
X027262Y017067D01*
X028262Y017067D02*
X028262Y017587D01*
X029262Y017587D02*
X029262Y017067D01*
X030262Y017067D02*
X030262Y017587D01*
X031262Y017587D02*
X031262Y017067D01*
X032262Y017067D02*
X032262Y017587D01*
X033262Y017587D02*
X033262Y017067D01*
X034262Y017067D02*
X034262Y017587D01*
X035262Y017587D02*
X035262Y017067D01*
X035262Y020067D02*
X035262Y020587D01*
X034262Y020587D02*
X034262Y020067D01*
X033262Y020067D02*
X033262Y020587D01*
X032262Y020587D02*
X032262Y020067D01*
X031262Y020067D02*
X031262Y020587D01*
X030262Y020587D02*
X030262Y020067D01*
X029262Y020067D02*
X029262Y020587D01*
X028262Y020587D02*
X028262Y020067D01*
X027262Y020067D02*
X027262Y020587D01*
X026262Y020587D02*
X026262Y020067D01*
X025262Y020067D02*
X025262Y020587D01*
X024262Y020587D02*
X024262Y020067D01*
X023262Y020067D02*
X023262Y020587D01*
X022262Y020587D02*
X022262Y020067D01*
X037199Y011430D02*
X037199Y010910D01*
X037199Y007430D02*
X037199Y006910D01*
D11*
X035825Y010119D03*
X035075Y010619D03*
X035825Y011119D03*
X021546Y014288D03*
X021546Y015288D03*
X021987Y022725D03*
X022987Y022725D03*
X023987Y022725D03*
X024987Y022725D03*
X025987Y022725D03*
X026987Y022725D03*
X028632Y022804D03*
X029632Y022804D03*
X030632Y022804D03*
X032160Y022843D03*
X033160Y022843D03*
X034160Y022843D03*
X002537Y022373D03*
X002537Y021373D03*
X002550Y019284D03*
X002550Y018284D03*
X002487Y016158D03*
X002487Y015158D03*
X002455Y013300D03*
X002455Y012300D03*
X002526Y010347D03*
X002526Y009347D03*
X002479Y007552D03*
X002479Y006552D03*
X002511Y004810D03*
X002511Y003810D03*
D12*
X039045Y019752D03*
X039825Y019752D03*
X039825Y020737D03*
X039045Y020737D03*
D13*
X001691Y001772D03*
X040895Y017875D03*
X040895Y022615D03*
X041274Y024587D03*
X001691Y024272D03*
X041235Y001693D03*
D14*
X035516Y004809D03*
X031689Y007171D03*
X024668Y013225D03*
X018382Y010558D03*
X012422Y004234D03*
X006922Y006047D03*
X007176Y021367D03*
D15*
X006176Y021367D03*
X023668Y013225D03*
X018382Y009558D03*
X011422Y004234D03*
X006922Y005047D03*
X030689Y007171D03*
X036516Y004809D03*
D16*
X028766Y009367D03*
X028766Y010367D03*
X028766Y011367D03*
X028766Y012367D03*
X025766Y012367D03*
X025766Y011367D03*
X025766Y010367D03*
X025766Y009367D03*
X029802Y014945D03*
X031802Y014945D03*
X008215Y016898D03*
X008215Y018898D03*
D17*
X036456Y016397D03*
X036456Y012397D03*
D18*
X033762Y012123D03*
X032762Y012123D03*
X030922Y011518D03*
X029922Y011518D03*
X030003Y010367D03*
X030003Y009367D03*
X032880Y010626D03*
X033880Y010626D03*
X035506Y008528D03*
X035506Y007528D03*
X028698Y007565D03*
X027698Y007565D03*
X024609Y009434D03*
X023459Y009221D03*
X023459Y010221D03*
X024609Y010434D03*
X024510Y011453D03*
X023510Y011453D03*
X020212Y010648D03*
X020212Y009648D03*
X016633Y009635D03*
X016633Y010635D03*
X017059Y012770D03*
X018059Y012770D03*
X012780Y015287D03*
X012780Y016287D03*
X010180Y017162D03*
X010180Y018162D03*
X008530Y020830D03*
X008530Y021830D03*
X004691Y021772D03*
X004691Y020772D03*
X004691Y019272D03*
X004691Y018272D03*
X004691Y016272D03*
X004691Y015272D03*
X004691Y013272D03*
X004691Y012272D03*
X004691Y010272D03*
X004691Y009272D03*
X004691Y007272D03*
X004691Y006272D03*
X004691Y004272D03*
X004691Y003272D03*
X035321Y002871D03*
X036321Y002871D03*
X019739Y020367D03*
X019739Y021367D03*
X018266Y022800D03*
X017266Y022800D03*
X013699Y022760D03*
X012699Y022760D03*
X022026Y021579D03*
X023026Y021579D03*
X036081Y022343D03*
X037081Y022343D03*
X036581Y023093D03*
D19*
X037463Y016840D03*
X038463Y016840D03*
X033820Y015580D03*
X033820Y014580D03*
X027772Y014501D03*
X027772Y015501D03*
X024605Y014945D03*
X023605Y014945D03*
X021609Y012780D03*
X021609Y011780D03*
X017952Y014204D03*
X016952Y014204D03*
X019729Y018993D03*
X020729Y018993D03*
X020566Y022764D03*
X019566Y022764D03*
X016125Y022804D03*
X015125Y022804D03*
X006534Y019548D03*
X006534Y018548D03*
X006534Y017296D03*
X006534Y016296D03*
X020971Y008434D03*
X021971Y008434D03*
X031239Y009367D03*
X031239Y010367D03*
X034296Y008541D03*
X034296Y007541D03*
X009396Y005724D03*
X009396Y004724D03*
D20*
X014920Y003556D02*
X014920Y002956D01*
X016920Y002956D02*
X016920Y003556D01*
X018420Y003517D02*
X018420Y002917D01*
X020420Y002917D02*
X020420Y003517D01*
X021920Y003517D02*
X021920Y002917D01*
X023920Y002917D02*
X023920Y003517D01*
X025380Y003556D02*
X025380Y002956D01*
X027380Y002956D02*
X027380Y003556D01*
X028762Y003596D02*
X028762Y002996D01*
X030762Y002996D02*
X030762Y003596D01*
X032105Y003596D02*
X032105Y002996D01*
X034105Y002996D02*
X034105Y003596D01*
X033405Y005296D02*
X032805Y005296D01*
X030062Y005296D02*
X029462Y005296D01*
X026680Y005256D02*
X026080Y005256D01*
X023220Y005217D02*
X022620Y005217D01*
X019720Y005217D02*
X019120Y005217D01*
X016220Y005256D02*
X015620Y005256D01*
D21*
X038668Y007809D03*
X039668Y008349D03*
X038668Y008889D03*
X039668Y009429D03*
X038668Y009969D03*
X039668Y010509D03*
X038668Y011049D03*
X039668Y011589D03*
X038668Y012129D03*
D22*
X039168Y014899D03*
X039168Y005039D03*
D23*
X016099Y018623D03*
X015843Y018623D03*
X015587Y018623D03*
X015331Y018623D03*
X015075Y018623D03*
X014819Y018623D03*
X014564Y018623D03*
X014308Y018623D03*
X014052Y018623D03*
X013796Y018623D03*
X013540Y018623D03*
X013284Y018623D03*
X013284Y020921D03*
X013540Y020921D03*
X013796Y020921D03*
X014052Y020921D03*
X014308Y020921D03*
X014564Y020921D03*
X014819Y020921D03*
X015075Y020921D03*
X015331Y020921D03*
X015587Y020921D03*
X015843Y020921D03*
X016099Y020921D03*
D24*
X015631Y021472D03*
X014591Y020432D03*
X014031Y020432D03*
X013311Y019392D03*
X013951Y019152D03*
X013551Y017952D03*
X012031Y016832D03*
X013471Y016512D03*
X018271Y014752D03*
X020111Y014752D03*
X020671Y013232D03*
X021231Y011232D03*
X016191Y013632D03*
X015791Y013072D03*
X022991Y014992D03*
X026271Y014512D03*
X029791Y013392D03*
X032857Y016464D03*
X025871Y022032D03*
X014111Y023312D03*
X021871Y005392D03*
D25*
X022790Y001453D03*
X038538Y001532D03*
X026963Y011099D03*
X025506Y014288D03*
X027869Y019052D03*
X024798Y021138D03*
X022790Y024839D03*
X017908Y020666D03*
X013577Y020154D03*
X014129Y017004D03*
X016136Y015548D03*
X015821Y014485D03*
X033302Y019091D03*
X037396Y019721D03*
X037554Y024642D03*
X005940Y024642D03*
X003774Y001650D03*
D26*
X029023Y016178D03*
M02*
