%
M48
M72
T01C0.0236
T02C0.0240
T03C0.0276
T04C0.0320
T05C0.0360
T06C0.0394
T07C0.0400
T08C0.0900
T09C0.1300
%
T01
X3774Y1650
X22790Y1453
X38538Y1532
X26963Y11099
X25506Y14288
X29023Y16178
X27869Y19052
X24798Y21138
X22790Y24839
X17908Y20666
X13577Y20154
X14129Y17004
X16136Y15548
X15821Y14485
X33302Y19091
X37396Y19721
X37554Y24642
X5940Y24642
T02
X14111Y23312
X15631Y21472
X14591Y20432
X14031Y20432
X13311Y19392
X13951Y19152
X13551Y17952
X12031Y16832
X13471Y16512
X18271Y14752
X20111Y14752
X20671Y13232
X21231Y11232
X16191Y13632
X15791Y13072
X22991Y14992
X26271Y14512
X29791Y13392
X32857Y16464
X25871Y22032
X21871Y5392
T03
X18382Y9558
X18382Y10558
X23668Y13225
X24668Y13225
X30689Y7171
X31689Y7171
X35516Y4809
X36516Y4809
X12422Y4234
X11422Y4234
X6922Y5047
X6922Y6047
X7176Y21367
X6176Y21367
T04
X4691Y21772
X4691Y20772
X6534Y19548
X6534Y18548
X8215Y18898
X10180Y18162
X10180Y17162
X8215Y16898
X6534Y17296
X6534Y16296
X4691Y16272
X4691Y15272
X2487Y15158
X2487Y16158
X2550Y18284
X2550Y19284
X4691Y19272
X4691Y18272
X8530Y20830
X8530Y21830
X12699Y22760
X13699Y22760
X15125Y22804
X16125Y22804
X17266Y22800
X18266Y22800
X19566Y22764
X20566Y22764
X22026Y21579
X23026Y21579
X23262Y20327
X22262Y20327
X24262Y20327
X25262Y20327
X26262Y20327
X27262Y20327
X28262Y20327
X29262Y20327
X30262Y20327
X31262Y20327
X32262Y20327
X33262Y20327
X34262Y20327
X35262Y20327
X36081Y22343
X37081Y22343
X36581Y23093
X35262Y17327
X34262Y17327
X33262Y17327
X32262Y17327
X31262Y17327
X30262Y17327
X29262Y17327
X28262Y17327
X27262Y17327
X26262Y17327
X25262Y17327
X24262Y17327
X23262Y17327
X22262Y17327
X20729Y18993
X19729Y18993
X19739Y20367
X19739Y21367
X12780Y16287
X12780Y15287
X12691Y14272
X12691Y13272
X12691Y12272
X12691Y11272
X12691Y10272
X12691Y9272
X12691Y8272
X12691Y7272
X9691Y7272
X9691Y8272
X9691Y9272
X9691Y10272
X9691Y11272
X9691Y12272
X9691Y13272
X9691Y14272
X4691Y13272
X4691Y12272
X2455Y12300
X2455Y13300
X2526Y10347
X2526Y9347
X4691Y9272
X4691Y10272
X2479Y7552
X2479Y6552
X4691Y6272
X4691Y7272
X2511Y4810
X2511Y3810
X4691Y4272
X4691Y3272
X9396Y4724
X9396Y5724
X16633Y9635
X16633Y10635
X20212Y10648
X20212Y9648
X20971Y8434
X21971Y8434
X23459Y9221
X24609Y9434
X25766Y9367
X25766Y10367
X24609Y10434
X23459Y10221
X23510Y11453
X24510Y11453
X25766Y11367
X25766Y12367
X28766Y12367
X29922Y11518
X28766Y11367
X28766Y10367
X28766Y9367
X30003Y9367
X31239Y9367
X31239Y10367
X30003Y10367
X30922Y11518
X32762Y12123
X33762Y12123
X35825Y11119
X35075Y10619
X35825Y10119
X37199Y11170
X33880Y10626
X32880Y10626
X34296Y8541
X35506Y8528
X34296Y7541
X35506Y7528
X37199Y7170
X36321Y2871
X35321Y2871
X28698Y7565
X27698Y7565
X21609Y11780
X21609Y12780
X23605Y14945
X24605Y14945
X27772Y14501
X27772Y15501
X29802Y14945
X31802Y14945
X33820Y14580
X33820Y15580
X37463Y16840
X38463Y16840
X17952Y14204
X16952Y14204
X17059Y12770
X18059Y12770
X2537Y21373
X2537Y22373
T05
X39045Y20737
X39825Y20737
X39825Y19752
X39045Y19752
T06
X36456Y16397
X36456Y12397
T07
X38668Y12129
X39668Y11589
X38668Y11049
X39668Y10509
X38668Y9969
X39668Y9429
X38668Y8889
X39668Y8349
X38668Y7809
X33105Y5296
X29762Y5296
X26380Y5256
X22920Y5217
X23920Y3217
X25380Y3256
X27380Y3256
X28762Y3296
X30762Y3296
X32105Y3296
X34105Y3296
X21920Y3217
X20420Y3217
X18420Y3217
X16920Y3256
X14920Y3256
X15920Y5256
X19420Y5217
X21546Y14288
X21546Y15288
X21987Y22725
X22987Y22725
X23987Y22725
X24987Y22725
X25987Y22725
X26987Y22725
X28632Y22804
X29632Y22804
X30632Y22804
X32160Y22843
X33160Y22843
X34160Y22843
T08
X40895Y22615
X40895Y17875
T09
X1691Y1772
X39168Y5039
X41235Y1693
X39168Y14899
X41274Y24587
X1691Y24272
M30
